# xmcd CD database file
#
# Track frame offsets:
#	150
#	12820
#	26250
#	41312
#	56412
#	63997
#	71075
#	84445
#	95230
#	109165
#	125192
#	141757
#	154942
#	166077
#	182850
#
# Disc length: 2575 seconds
#
# Revision: 2
# Processed by: cddbd v1.5.2PL0 Copyright (c) Steve Scherf et al.
# Submitted via: CDex 1.70beta2
#
DISCID=c70a0d0f
DTITLE=BOMB FACTORY - Go This Way
DYEAR=2002
DGENRE=Rock
TTITLE0=Down
TTITLE1=Go Straight
TTITLE2=Jimmy's Backyard
TTITLE3=Remember
TTITLE4=Lost My Way
TTITLE5=Puke
TTITLE6=Easy
TTITLE7=Crack
TTITLE8=Break Up
TTITLE9=She
TTITLE10=Rage
TTITLE11=Sick Of You
TTITLE12=Fling Your Angry Fist
TTITLE13=Break It Right Now
TTITLE14=One Day
EXTD=YEAR: 2002
EXTT0=
EXTT1=
EXTT2=
EXTT3=
EXTT4=
EXTT5=
EXTT6=
EXTT7=
EXTT8=
EXTT9=
EXTT10=
EXTT11=
EXTT12=
EXTT13=
EXTT14=
PLAYORDER=
